<?xml version="1.0" encoding="utf-8"?>
<!-- Generator: Adobe Illustrator 23.0.1, SVG Export Plug-In . SVG Version: 6.00 Build 0)  -->
<svg version="1.1" id="Layer_1" xmlns="http://www.w3.org/2000/svg" xmlns:xlink="http://www.w3.org/1999/xlink" x="0px" y="0px"
	 viewBox="0 0 512 512" style="enable-background:new 0 0 512 512;" xml:space="preserve">
<style type="text/css">
	.st0{opacity:0.8;fill:#FFFFFF;}
	.st1{fill:#FFFFFF;}
</style>
<g>
	<path class="st0" d="M54.9,161.1h-26V24.7h18l81.2,92.8V27.7h26v136h-18L54.9,70.9V161.1z"/>
	<path class="st0" d="M310.9,161.1l-11.8-28h-53.8l-11.8,28h-28.2l57.8-136.2h19.6l56.2,136.2H310.9z M253.5,111.9h38l-18.8-48
		L253.5,111.9z"/>
	<path class="st0" d="M479.7,27.7l-64.8,111h61.6v22.4H371.7l64.8-111h-54.6V27.7H479.7z"/>
	<path class="st0" d="M130.7,329.1l-11.8-28H65.1l-11.8,28H25.1l57.8-136.2h19.6l56.2,136.2H130.7z M73.3,279.9h38l-18.8-48
		L73.3,279.9z"/>
	<path class="st0" d="M220.9,195.7h38.6c14.7,0,26,3.3,34,10c8.8,7.5,13.2,17.5,13.2,30c0,13.9-5.2,24.3-15.6,31.4
		c-4,2.8-8.9,4.7-14.6,5.8l41.6,56.2h-32.4l-35.6-53.6h-3.2v53.6h-26V195.7z M246.9,216.9v40.2h7.4c2.1,0,4.2-0.2,6.3-0.5
		c2.1-0.3,4.8-1.1,8.1-2.2c3.3-1.1,6-3.2,8.1-6.2c2.1-3,3.1-6.8,3.1-11.3c0-4.5-1-8.3-3-11.3s-4.7-5.1-8-6.2c-3.3-1.1-6-1.8-8-2.1
		c-2-0.3-4.1-0.4-6.2-0.4H246.9z"/>
	<path class="st1" d="M364.3,195.7h22l37.2,93l37.2-93h22l-59.2,142L364.3,195.7z"/>
	<path class="st1" d="M43.1,381.1c13.2-13.2,29.7-19.8,49.6-19.8c19.9,0,36.4,6.6,49.6,19.8c13.2,13.2,19.8,29.7,19.8,49.4
		c0,19.7-6.6,36.2-19.8,49.4c-13.2,13.2-29.7,19.8-49.6,19.8c-19.9,0-36.4-6.6-49.6-19.8c-13.2-13.2-19.8-29.7-19.8-49.4
		C23.3,410.8,29.9,394.3,43.1,381.1z M57.5,466.8c9.2,9.4,20.9,14.1,35.2,14.1c14.3,0,26-4.7,35.2-14.1c9.2-9.4,13.8-21.5,13.8-36.3
		c0-14.8-4.6-26.9-13.8-36.3c-9.2-9.4-20.9-14.1-35.2-14.1c-14.3,0-26,4.7-35.2,14.1c-9.2,9.4-13.8,21.5-13.8,36.3
		C43.7,445.3,48.3,457.4,57.5,466.8z"/>
	<path class="st1" d="M209.1,363.7h22l37.2,93l37.2-93h22l-59.2,142L209.1,363.7z"/>
	<path class="st1" d="M398.3,363.7v53.2l51.6-53.2h26.8l-60.2,60.4l60.6,73h-27.2l-47.6-59.2l-4,4v55.2h-20.4V363.7H398.3z"/>
</g>
</svg>
