<?xml version="1.0" encoding="utf-8"?>
<!-- Generator: Adobe Illustrator 23.0.1, SVG Export Plug-In . SVG Version: 6.00 Build 0)  -->
<svg version="1.1" id="Layer_1" xmlns="http://www.w3.org/2000/svg" xmlns:xlink="http://www.w3.org/1999/xlink" x="0px" y="0px"
	 viewBox="0 0 429.2 429.2" style="enable-background:new 0 0 429.2 429.2;" xml:space="preserve">
<style type="text/css">
	.st0{enable-background:new    ;}
	.st1{fill:none;stroke:#FFFFFF;stroke-width:4;stroke-miterlimit:10;}
	.st2{fill:#FFFFFF;}
</style>
<title>Asset 1</title>
<g>
	<g id="Layer_1-2">
		<g class="st0">
			<path class="st1" d="M46.8,132.8H22.4V4.6h16.9l76.3,87.2V7.5H140v127.8h-16.9L46.8,48.1V132.8z"/>
		</g>
		<g class="st0">
			<path class="st1" d="M269.4,132.8l-11.1-26.3h-50.6l-11.1,26.3h-26.5l54.3-128h18.4l52.8,128H269.4z M215.4,86.6h35.7l-17.7-45.1
				L215.4,86.6z"/>
		</g>
		<g class="st0">
			<path class="st1" d="M413.8,7.5l-60.9,104.3h57.9v21.1h-98.5l60.9-104.3h-51.3V7.5H413.8z"/>
		</g>
		<g class="st0">
			<path class="st1" d="M123.9,276.9l-11.1-26.3H62.2l-11.1,26.3H24.6l54.3-128h18.4l52.8,128H123.9z M69.9,230.6h35.7L88,185.5
				L69.9,230.6z"/>
		</g>
		<g class="st0">
			<path class="st1" d="M194.6,151.5h36.3c13.8,0,24.4,3.1,32,9.4c8.3,7,12.4,16.4,12.4,28.2c0,13-4.9,22.9-14.7,29.5
				c-3.8,2.6-8.3,4.5-13.7,5.5l39.1,52.8h-30.5L222,226.5h-3v50.4h-24.4V151.5z M219,171.4v37.8h7c2,0,4-0.2,5.9-0.5
				c1.9-0.3,4.5-1,7.6-2.1c3.1-1.1,5.7-3,7.6-5.8c1.9-2.8,2.9-6.4,2.9-10.6c0-4.3-0.9-7.8-2.8-10.6s-4.4-4.8-7.5-5.8
				c-3.1-1.1-5.6-1.7-7.5-2c-1.9-0.3-3.8-0.4-5.8-0.4H219z"/>
		</g>
		<g class="st0">
			<path class="st2" d="M301.3,151.5H328l33.5,84.2l33.5-84.2h26.7l-53.8,128.2h-13.2L301.3,151.5z"/>
		</g>
		<g class="st0">
			<path class="st2" d="M32.2,311.1c12.5-12.3,28.5-18.4,48.2-18.4c19.7,0,35.7,6.1,48.2,18.4c12.5,12.3,18.7,28,18.7,47.2
				c0,19.2-6.2,34.9-18.7,47.1c-12.5,12.2-28.5,18.3-48.2,18.3c-19.7,0-35.8-6.1-48.2-18.3c-12.5-12.2-18.7-27.9-18.7-47.1
				C13.5,339.1,19.8,323.3,32.2,311.1z M50.4,389.4c7.8,8.1,17.8,12.1,30.1,12.1c12.3,0,22.3-4,30.1-12.1
				c7.8-8.1,11.7-18.5,11.7-31.1c0-12.7-3.9-23.1-11.8-31.2c-7.8-8.1-17.8-12.2-30-12.2c-12.2,0-22.2,4.1-30,12.2
				c-7.8,8.1-11.8,18.5-11.8,31.2C38.7,370.9,42.6,381.3,50.4,389.4z"/>
		</g>
		<g class="st0">
			<path class="st2" d="M169.9,295.5h26.7l33.5,84.2l33.5-84.2h26.7l-53.8,128.2h-13.2L169.9,295.5z"/>
		</g>
		<g class="st0">
			<path class="st2" d="M340.3,295.5v53l46.1-53h30.8l-53,57.9l55.8,67.5h-32.3l-44.6-56.2l-2.8,2.8v53.4h-24.4V295.5H340.3z"/>
		</g>
	</g>
</g>
</svg>
