<?xml version="1.0" encoding="utf-8"?>
<!-- Generator: Adobe Illustrator 23.0.1, SVG Export Plug-In . SVG Version: 6.00 Build 0)  -->
<svg version="1.1" id="Layer_1" xmlns="http://www.w3.org/2000/svg" xmlns:xlink="http://www.w3.org/1999/xlink" x="0px" y="0px"
	 viewBox="0 0 512 512" style="enable-background:new 0 0 512 512;" xml:space="preserve">
<style type="text/css">
	.st0{opacity:0.5;fill:#FFFFFF;enable-background:new    ;}
	.st1{fill:#FFFFFF;}
</style>
<g>
	<path class="st0" d="M56.9,160.1h-26V23.7h18l81.2,92.8V26.7h26v136h-18L56.9,69.9V160.1z"/>
	<path class="st0" d="M307.9,161.1l-11.8-28h-53.8l-11.8,28h-28.2l57.8-136.2h19.6l56.2,136.2H307.9z M250.5,111.9h38l-18.8-48
		L250.5,111.9z"/>
	<path class="st0" d="M492.7,27.7l-64.8,111h61.6v22.4H384.7l64.8-111h-54.6V27.7H492.7z"/>
	<path class="st0" d="M132.7,329.1l-11.8-28H67.1l-11.8,28H27.1l57.8-136.2h19.6l56.2,136.2H132.7z M75.3,279.9h38l-18.8-48
		L75.3,279.9z"/>
	<path class="st0" d="M227.9,195.7h38.6c14.7,0,26,3.3,34,10c8.8,7.5,13.2,17.5,13.2,30c0,13.9-5.2,24.3-15.6,31.4
		c-4,2.8-8.9,4.7-14.6,5.8l41.6,56.2h-32.4l-35.6-53.6h-3.2v53.6h-26L227.9,195.7L227.9,195.7z M253.9,216.9v40.2h7.4
		c2.1,0,4.2-0.2,6.3-0.5c2.1-0.3,4.8-1.1,8.1-2.2c3.3-1.1,6-3.2,8.1-6.2s3.1-6.8,3.1-11.3s-1-8.3-3-11.3s-4.7-5.1-8-6.2
		c-3.3-1.1-6-1.8-8-2.1s-4.1-0.4-6.2-0.4L253.9,216.9L253.9,216.9z"/>
	<path class="st1" d="M377.3,195.7h22l37.2,93l37.2-93h22l-59.2,142L377.3,195.7z"/>
	<path class="st1" d="M45.1,381.1c13.2-13.2,29.7-19.8,49.6-19.8s36.4,6.6,49.6,19.8c13.2,13.2,19.8,29.7,19.8,49.4
		c0,19.7-6.6,36.2-19.8,49.4c-13.2,13.2-29.7,19.8-49.6,19.8s-36.4-6.6-49.6-19.8c-13.2-13.2-19.8-29.7-19.8-49.4
		C25.3,410.8,31.9,394.3,45.1,381.1z M59.5,466.8c9.2,9.4,20.9,14.1,35.2,14.1s26-4.7,35.2-14.1s13.8-21.5,13.8-36.3
		s-4.6-26.9-13.8-36.3s-20.9-14.1-35.2-14.1s-26,4.7-35.2,14.1s-13.8,21.5-13.8,36.3C45.7,445.3,50.3,457.4,59.5,466.8z"/>
	<path class="st1" d="M210.1,363.7h22l37.2,93l37.2-93h22l-59.2,142L210.1,363.7z"/>
	<path class="st1" d="M411.3,363.7v53.2l51.6-53.2h26.8l-60.2,60.4l60.6,73h-27.2l-47.6-59.2l-4,4v55.2h-20.4V363.7H411.3z"/>
</g>
</svg>
